<svg xmlns="http://www.w3.org/2000/svg" viewBox="0 0 571 259.48"><defs><style>.cls-1{fill:#b4dd7f;}.cls-2{fill:#e6e9ed;}.cls-3{fill:#fcd770;}.cls-4{fill:#878791;}.cls-5{fill:#6fa498;}.cls-6{fill:#017564;}.cls-7{fill:#d3a06c;}.cls-8{fill:#ccd1d9;}.cls-9{fill:#aab2bd;}.cls-10{fill:#f0d0b4;}.cls-11{fill:#bb696a;}.cls-12{fill:#fef2e2;}.cls-13{fill:#ffe1ba;}.cls-14{fill:#ffc277;}.cls-15{fill:#f88fa4;}.cls-16{fill:#f05475;}.cls-17{fill:#ffb487;}.cls-18{fill:#ffcdac;}.cls-19{fill:#8eb9ae;}.cls-20{fill:#dad8db;}.cls-21{fill:#c8c5c9;}.cls-22{fill:#bed8fb;}.cls-23{fill:#eceaec;}.cls-24{fill:#a3caf7;}.cls-25{fill:#434d59;}.cls-26{fill:#2c685d;}.cls-27{fill:#edc963;}.cls-28{fill:#e7b93e;}.cls-29{fill:#ad2e28;}.cls-30{fill:#d8ba3d;}.cls-31{fill:#0aa200;}</style></defs><g id="Layer_2" data-name="Layer 2"><g id="Layer_1-2" data-name="Layer 1"><g id="Layer_2-2" data-name="Layer 2"><g id="Layer_1-2-2" data-name="Layer 1-2"><path class="cls-1" d="M166.6,97.27V79.76a5.83,5.83,0,0,1,5.84-5.84H242.5a5.84,5.84,0,0,1,5.84,5.84V97.27Z"/><path class="cls-2" d="M248.34,97.27v29.2a5.85,5.85,0,0,1-5.84,5.84h-8.76l-10.47,10.47a4.12,4.12,0,0,1-7-2.92v-7.55H172.44a5.84,5.84,0,0,1-5.84-5.84V97.27Z"/><path class="cls-3" d="M236.66,120.63H219.15V109h17.51Z"/><path class="cls-4" d="M299.12,85.6a31,31,0,0,1,31,30.79v.53c-.16,14.15-23.72,29.92-23.72,29.92v-8.76l1.95-1.71a14.1,14.1,0,0,0,0-19.93l-1.58-1.71v-3a8.85,8.85,0,0,0-8.89-8.66h-2.92l-.37-.13-2.08,3.5c-1.55,1.53-5.83,2.47-5.83,2.47H271.53s-11.68-5.29-11.68-11.74A11.58,11.58,0,0,1,271.53,85.6h27.59Z"/><path class="cls-5" d="M303.81,181.94l7.4-22.23,1.17.29a23.36,23.36,0,0,1,17.7,22.67v20.69c0,.65,0,1.27-.07,1.93H312.56l-.14,0a19.94,19.94,0,0,1-19.78,17.56h-.51l-4-4a6.2,6.2,0,0,0-10.58,4.38v2.56a8.53,8.53,0,0,0-6.2,2.55,8.88,8.88,0,0,0-2.56,6.2,8.52,8.52,0,0,0,.52,2.92H254.18V219.89H260a11.67,11.67,0,0,0,11.67-11.68v-35a11.67,11.67,0,0,0-3.46-8.29,22.81,22.81,0,0,1,9.48-4.89l1.17-.29,7.41,22.23,8.76-11.68Z"/><path class="cls-6" d="M283.22,158.52,294.9,170.2l-8.76,11.67-7.41-22.22Z"/><path class="cls-6" d="M306.57,158.52l4.49,1.13-7.4,22.22L294.9,170.2Z"/><path class="cls-7" d="M166.64,237.4H288.9a11.65,11.65,0,0,1,8.23,3.42,16,16,0,0,1,1.23,1.49,11.76,11.76,0,0,1,2.15,6.77H155A11.69,11.69,0,0,1,166.64,237.4Z"/><path class="cls-8" d="M184.11,173.18a11.68,11.68,0,0,1,11.68-11.68H260a11.7,11.7,0,0,1,11.67,11.68v35A11.67,11.67,0,0,1,260,219.89H242.5v-5.84a5.83,5.83,0,0,0-5.84-5.84H219.15a5.83,5.83,0,0,0-5.84,5.84v5.84H195.79a11.68,11.68,0,0,1-11.68-11.68v-35Z"/><path class="cls-9" d="M213.31,214.05a5.83,5.83,0,0,1,5.84-5.84h17.51a5.83,5.83,0,0,1,5.84,5.84V237.4H213.31V214.05Z"/><path class="cls-10" d="M271.33,228.28a8.83,8.83,0,0,1,6.2-2.55v-2.56a6.21,6.21,0,0,1,10.58-4.38l4,4h.51a19.94,19.94,0,0,0,19.78-17.56l.14,0H330a39.63,39.63,0,0,1-11.61,26.27,40,40,0,0,1-19.7,10.77,9.88,9.88,0,0,0-1.24-1.5,11.66,11.66,0,0,0-8.25-3.43H269.29a8.52,8.52,0,0,1-.52-2.92A8.7,8.7,0,0,1,271.33,228.28Z"/><path class="cls-10" d="M292.6,106.54l2.08-3.5.37.07h3a8.75,8.75,0,0,1,8.72,8.76v2.92l1.71,1.72a14.09,14.09,0,0,1,0,19.92l-1.71,1.72v20.43l-11.68,11.68-11.68-11.68v-8.76a17.36,17.36,0,0,1-7.81-1.82,17.08,17.08,0,0,1-6.2-5.18,17.63,17.63,0,0,1-3.51-10.51V107.38a11.65,11.65,0,0,0,5.84,1.57H286.8A8.2,8.2,0,0,0,292.6,106.54Z"/><circle cx="291.98" cy="120.57" r="2.92"/><circle cx="274.46" cy="120.57" r="2.92"/><path d="M277.09,130.93l-5.22,2.63.29.62a12.37,12.37,0,0,0,22.12,0l.29-.62-5.22-2.63-.29.62a6.52,6.52,0,0,1-11.68,0Z"/><path d="M166.6,234.48a14.6,14.6,0,0,0-14.6,14.6V252H303.81v-2.92a15.45,15.45,0,0,0-.88-4.85A42.69,42.69,0,0,0,333,203.39V182.67a26.27,26.27,0,0,0-19.89-25.51l-3.46-.88v-7.22A33.64,33.64,0,0,0,333,117v-.55a33.79,33.79,0,0,0-33.75-33.75H271.68a14.55,14.55,0,0,0-8.74,26.2v23.43a20.19,20.19,0,0,0,4.11,12.22,20.47,20.47,0,0,0,13.4,8v3.79l-3.46.88a27.23,27.23,0,0,0-8.7,4,14.47,14.47,0,0,0-8.27-2.59H195.79a14.6,14.6,0,0,0-14.6,14.6v35a14.6,14.6,0,0,0,14.6,14.6h14.6v11.67H166.6Zm49.63,0V214.05a2.92,2.92,0,0,1,2.92-2.92h17.51a2.92,2.92,0,0,1,2.92,2.92v20.43Zm35-11.67v11.67h-5.84V222.81ZM260,164.42a8.77,8.77,0,0,1,8.75,8.76v35A8.78,8.78,0,0,1,260,217h-14.6v-2.92a8.78,8.78,0,0,0-8.76-8.76H219.15a8.78,8.78,0,0,0-8.76,8.76V217h-14.6a8.8,8.8,0,0,1-8.76-8.76v-35a8.79,8.79,0,0,1,8.76-8.76Zm31,6.07-3.89,5.18L282.6,162Zm-22.28-58.91a15.14,15.14,0,0,0,2.92.29H286.8a11.13,11.13,0,0,0,9.74-5.84H298a5.85,5.85,0,0,1,5.84,5.84V116l2.55,2.56h0a11.2,11.2,0,0,1,0,15.83l-2.55,2.55v20.44l-8.76,8.75-8.76-8.75v-4.64h2.23a13.41,13.41,0,0,0,12-7.44l-5.22-2.63a7.5,7.5,0,0,1-6.82,4.23h-5.15a14.6,14.6,0,0,1-14.6-14.59ZM307.16,162l-4.53,13.65-3.86-5.18Zm20-45a28,28,0,0,1-17.51,26.09V139.6l.83-.85,0,0a17.19,17.19,0,0,0,0-24.2l-.83-.84v-1.73A11.75,11.75,0,0,0,298,100.19h-.08a11.15,11.15,0,0,0-3.21-7.45l-.51-.51-4.12,4.14.51.52a5.25,5.25,0,0,1,1.57,3.78A5.35,5.35,0,0,1,286.8,106H271.69a8.75,8.75,0,0,1-8.73-9.4,9.07,9.07,0,0,1,8.91-8.11h27.38a27.93,27.93,0,0,1,27.91,27.91v.6Zm-14.08,46.22a20.37,20.37,0,0,1,14.08,19.38v19.74H315.48V179h-5.83v23.83a17,17,0,0,1-5,12,17.13,17.13,0,0,1-11.34,5l-3.14-3.14a9.27,9.27,0,0,0-6.45-2.66,9.12,9.12,0,0,0-9.12,9.12h0a11.7,11.7,0,0,0-8.75,11.31H257.1V222.81H260a14.6,14.6,0,0,0,14.59-14.6V173.09a14.4,14.4,0,0,0-2.26-7.71,20.68,20.68,0,0,1,4.63-2.2l8.29,24.93,9.78-13.05,9.78,13.05,8.25-24.86Zm3.09,66.23a36.35,36.35,0,0,1-16.6,9.57A14.45,14.45,0,0,0,289,234.48H271.33a5.83,5.83,0,0,1,5.84-5.83h2.92v-5.48a3.28,3.28,0,0,1,5.58-2.33l4.89,4.89h1.72a22.69,22.69,0,0,0,16.16-6.68,23,23,0,0,0,6.06-10.84h12.15a36.65,36.65,0,0,1-10.48,21.27Zm-158,16.68a8.77,8.77,0,0,1,8.25-5.84H289.06a8.78,8.78,0,0,1,8.25,5.84Z"/><path d="M239.58,88.52h-5.84V82.68h5.84Z"/><path d="M227.9,88.52h-5.84V82.68h5.84Z"/><path d="M216.23,88.52h-5.84V82.68h5.84Z"/><path d="M239.58,106H216.23v17.52h23.35Zm-5.84,11.68H222.06v-5.84h11.68Z"/><path d="M210.39,111.87h-5.84V106h5.84Z"/><path d="M198.71,111.87H175.35V106h23.36Z"/><path d="M210.39,123.55h-35v-5.84h35Z"/><path d="M251.26,126.47V79.76A8.79,8.79,0,0,0,242.5,71H172.44a8.78,8.78,0,0,0-8.76,8.76v46.71a8.78,8.78,0,0,0,8.76,8.76h40.87v4.63a7,7,0,0,0,12,5l9.6-9.59h7.55A8.8,8.8,0,0,0,251.26,126.47Zm-78.82,2.92a2.92,2.92,0,0,1-2.92-2.92V100.19h75.9v26.28a2.92,2.92,0,0,1-2.92,2.92h-10L221.23,140.7a1.26,1.26,0,0,1-2.08-.84V129.39ZM242.5,76.84h0a2.92,2.92,0,0,1,2.92,2.92V94.35h-75.9V79.76a2.92,2.92,0,0,1,2.92-2.92Z"/><path d="M298,199.45h-5.84v-5.84H298Z"/><path d="M298,187.77h-5.84v-5.83H298Z"/><path d="M298,211.13h-5.84v-5.84H298Z"/></g></g><path class="cls-11" d="M257.06,14.87a3.43,3.43,0,0,0-3.43,3.44V65.69a3.42,3.42,0,0,0,3.43,3.43h72.75a3.44,3.44,0,0,0,3.44-3.44V18.31a3.43,3.43,0,0,0-3.44-3.43H257.06Z"/><path class="cls-12" d="M258.88,10.5h31.56a3.44,3.44,0,0,1,3.44,3.44V63h-35Z"/><path class="cls-13" d="M262.38,63h-3.5V10.5h3.5Z"/><path class="cls-12" d="M293.87,12.86a5.19,5.19,0,0,1,2.46-4.39A26.81,26.81,0,0,1,321.56,7l7.32,3.43V63h-35Z"/><path class="cls-13" d="M293.88,63h3.48l0-51.87a5.1,5.1,0,0,1,2.45-4.36l.43-.27a26.56,26.56,0,0,0-3.91,2,5.14,5.14,0,0,0-2.46,4.39Z"/><path class="cls-13" d="M258.88,55.12h31.56a3.44,3.44,0,0,1,3.44,3.44V63h-35Z"/><path class="cls-13" d="M293.88,63h35V54.6l-7.32-3.43a26.79,26.79,0,0,0-25.23,1.49,5.16,5.16,0,0,0-2.45,4.39Z"/><path class="cls-14" d="M296.58,52.8a5.14,5.14,0,0,0-2,2.32h34.29v-.4l-7.26-3.43A26.38,26.38,0,0,0,296.58,52.8Z"/><path class="cls-15" d="M315.75,22l-5.25-1.38L305.25,22V1.75h10.5Z"/><path class="cls-16" d="M305.25,1.75V22l3.5-.92V1.75Z"/><path d="M255.38,49V17.9a2.14,2.14,0,0,1,2.14-2.15H258v49h71.75v-49h.48a2.15,2.15,0,0,1,2.15,2.15V65.23a2.16,2.16,0,0,1-2.15,2.15H257.52a2.14,2.14,0,0,1-2.14-2.14V51.62h-2.63V65.27A4.73,4.73,0,0,0,257.48,70h72.79A4.73,4.73,0,0,0,335,65.27V17.85a4.72,4.72,0,0,0-4.73-4.72h-.52V9.7l-8.19-3.78a27.18,27.18,0,0,0-4.93-1.73V0H304.38V4.18a26.68,26.68,0,0,0-8.58,3.64,6.61,6.61,0,0,0-2.22,2.44c-.06.11-.11.21-.16.32a4.58,4.58,0,0,0-2.8-1H258v3.5h-.52a4.73,4.73,0,0,0-4.73,4.73V49Zm59.5-29.1-3.94-1-3.94,1V2.63h7.88Zm12.25-8.58V52.78l-5.46-2.56a28.08,28.08,0,0,0-26.47,1.57,5.09,5.09,0,0,0-.45.31V23.62H293V54.77a4.79,4.79,0,0,0-2.17-.52H260.62v-42h30.2A2.14,2.14,0,0,1,293,14.34V16h0v5h2.63V13.19a4,4,0,0,1,.46-1.87,3.86,3.86,0,0,1,1.29-1.4,23.56,23.56,0,0,1,7-3V23.34l6.56-1.75,6.56,1.75V7.11A22.64,22.64,0,0,1,321,8.42Zm0,50.81H294.2s0-5,.08-5.25H314V54.25H296.15a26.27,26.27,0,0,1,24.3-1.37L327.13,56v6.16Zm-66.51,0V56.87h30.22A2.15,2.15,0,0,1,293,59v3.1Z"/><path d="M319.25,56.88h-2.62V54.25h2.62Z"/><path d="M283.38,19.38l-15.78-.13,0-2.76,15.77.13Z"/><path d="M287.75,27.32l-21.9-.2,0-2.81,21.89.19Z"/><path d="M279,32.49l-13.15-.12,0-2.73,13.14.11Z"/><path d="M286.88,32.43l-6.15-.06,0-2.67,6.14.05Z"/><path d="M287.75,37.82l-21.9-.2,0-2.81,21.89.19Z"/><path d="M287.75,43.07l-21.9-.2,0-2.81,21.89.19Z"/><path d="M287.75,48.29l-14-.17,0-2.79,14,.17Z"/><path class="cls-5" d="M521.72,235.29h44.59v-32.7a29,29,0,0,0-22.48-28.26l-21.27-4.9h0V157.17H499.13v12.25h0L479,174.23a29.14,29.14,0,0,0-14.23,8.1Z"/><polygon class="cls-17" points="524.13 157.17 524.13 169.76 511.63 200.1 499.13 169.72 499.13 157.17 524.13 157.17"/><path class="cls-18" d="M483.5,115h54.69v16.93a27.29,27.29,0,0,1-27.35,27.24h0a27.29,27.29,0,0,1-27.34-27.24V115Z"/><path class="cls-4" d="M485.83,112h0a65.41,65.41,0,0,0,33.51,9.23h18.85v-6.56a27.29,27.29,0,0,0-27.35-27.24h0a27.29,27.29,0,0,0-27.34,27.24v6.56"/><path class="cls-19" d="M370.28,235.29H325.69V202.4a29,29,0,0,1,22.25-28.21l19.94-4.76h0V157.17h25v12.25h0l20.17,4.81a29.14,29.14,0,0,1,14.23,8.1Z"/><path class="cls-5" d="M428.19,182.17l-27.84,6.72a40.39,40.39,0,0,0-30.91,39.27v27.45H521V228.13a40.39,40.39,0,0,0-30.88-39.25l-27.92-6.77Z"/><polygon class="cls-17" points="392.88 157.17 392.88 169.72 380.37 200.1 367.88 169.76 367.88 157.17 392.88 157.17"/><path class="cls-17" d="M463.78,179.74a14.76,14.76,0,0,1-2.15-7.67v-4H428.81v4a14.69,14.69,0,0,1-2.16,7.68L445.21,221Z"/><path class="cls-18" d="M483.5,104v26.19a38.11,38.11,0,0,1-38.28,37.94h0a38.11,38.11,0,0,1-38.28-37.94V104Z"/><path class="cls-4" d="M406.94,104.29v9.13l25.61-14.91h0a42.2,42.2,0,0,0,32.23,14.91H483.5v-9.13a38.12,38.12,0,0,0-38.28-37.95h0A38.12,38.12,0,0,0,406.94,104.29Z"/><path class="cls-18" d="M408.5,115H353.81v16.93a27.29,27.29,0,0,0,27.35,27.24h0a27.29,27.29,0,0,0,27.34-27.24V115Z"/><path class="cls-4" d="M406.17,112h0a65.41,65.41,0,0,1-33.51,9.23H353.81v-6.56a27.29,27.29,0,0,1,27.35-27.24h0a27.29,27.29,0,0,1,27.34,27.24v6.56"/><path d="M442.5,251.17a4.88,4.88,0,1,0,3.44-1.42A4.93,4.93,0,0,0,442.5,251.17Z"/><path d="M321,202.41v32.71a4.87,4.87,0,0,0,4.86,4.86h38.89v13.89a4.87,4.87,0,0,0,4.86,4.86h54a4.69,4.69,0,0,0,4.62-5.52,4.87,4.87,0,0,0-4.88-3.85H400.69V228.73a4.7,4.7,0,0,0-5.53-4.62,4.87,4.87,0,0,0-3.85,4.88v20.37H374.12V236.67a4.85,4.85,0,0,0,0-3.81v-5.42a35.54,35.54,0,0,1,27.29-34.56l23.92-5.7,15.4,35a4.86,4.86,0,0,0,4.45,2.91h0a4.87,4.87,0,0,0,4.45-2.91l15.41-35,24,5.74a35.51,35.51,0,0,1,27.26,34.55v21.94H499.12V228.73a4.69,4.69,0,0,0-5.52-4.62,4.87,4.87,0,0,0-3.85,4.88v20.37H468.82a4.69,4.69,0,0,0-4.61,5.52,4.87,4.87,0,0,0,4.88,3.85h53.3a4.87,4.87,0,0,0,4.86-4.86V240h38.89a4.87,4.87,0,0,0,4.86-4.86v-33a33.85,33.85,0,0,0-26-32.94L527.25,165v-5.22a33.42,33.42,0,0,0,15.63-28.27V114.56c0-14.65-11.65-29.49-26-32.19a32.2,32.2,0,0,0-30.35,10.38,43,43,0,0,0-41.31-31.14h0a43,43,0,0,0-41.28,31.06,32.18,32.18,0,0,0-28.71-10.55c-15.24,2.12-27.62,17.09-27.62,32.47v16.9a33.42,33.42,0,0,0,15.63,28.27v5.84L347,169.48A33.85,33.85,0,0,0,321,202.41Zm53.13-32.54v-6.58a38.72,38.72,0,0,0,6.48.87,31.39,31.39,0,0,0,6-.86v6s1.56.49,1.56.53a4.36,4.36,0,0,0,0,.51l-7,16.78-7.1-17A2.28,2.28,0,0,0,374.13,169.87Zm93.75-3.31A43.64,43.64,0,0,0,484.25,149a32.83,32.83,0,0,0,10.19,10.16v6.46l-16.5,4a34.17,34.17,0,0,0-10.06,4.2Zm-20.29-4.16a33,33,0,0,1-34.4-31.9V116l19.41-11.49a45.93,45.93,0,0,0,32.63,13.59h13.58v10.64C478.81,146.41,465.23,161.55,447.59,162.4Zm-23.46,4.24v7.18A34,34,0,0,0,414,169.59l-16.46-3.94V159.2a32.72,32.72,0,0,0,10.11-10,43.6,43.6,0,0,0,16.45,17.48Zm-65.63-34v-6.71h14.09a71.44,71.44,0,0,0,31.19-7.17s0,12.58,0,13.08v.24c0,10.39-6.87,19.8-17,22.25A22.65,22.65,0,0,1,358.5,132.63ZM402.35,107a60.11,60.11,0,0,1-29.94,8H358.5v-1.11c0-11.37,8.24-21.38,19.52-22.78A22.42,22.42,0,0,1,402.35,107Zm76.46,1.74H465.23a36.32,36.32,0,0,1-28-13.18,4.83,4.83,0,0,0-6.18-1L413.19,105.1V105c0-17.1,12.75-32,29.79-33.51a33,33,0,0,1,35.83,32.94Zm54.69,5.14V115H519.59a60.11,60.11,0,0,1-29.94-8A22.41,22.41,0,0,1,514,91.09C525.26,92.49,533.5,102.5,533.5,113.87Zm0,18.76a22.65,22.65,0,0,1-28.34,21.69c-10.1-2.44-17-11.86-17-22.25V118.74a71.44,71.44,0,0,0,31.22,7.18H533.5Zm-15.62,31.2v5.91c0,.11,0,.23,0,.34L510.83,187l-7-16.84a3.25,3.25,0,0,0,0-.44,2.17,2.17,0,0,0,0-.26v-5.62a30.65,30.65,0,0,0,7,.82A31,31,0,0,0,517.88,163.83Zm-2.27,35.89,10.16-24.11,15.71,3.72a24.14,24.14,0,0,1,18.58,23.49v27.79h-9.37V209a4.74,4.74,0,0,0-5.53-4.78,4.92,4.92,0,0,0-3.85,4.92v21.48H525.69v-2.49A44.87,44.87,0,0,0,515.61,199.72Zm-39.16-19.63a22.9,22.9,0,0,1,3.49-1.12l15.42-3.7,4.74,11.35a46.18,46.18,0,0,0-8.23-2.83Zm-42.95.53V170.3a44,44,0,0,0,25-.05v10.32L446,209Zm-33.61,3.19a44.6,44.6,0,0,0-8.34,2.87l4.76-11.4L411.69,179a23.37,23.37,0,0,1,3.58,1.16Zm-69.51,19a24.13,24.13,0,0,1,18.56-23.48l15.66-3.71,10.17,24.17a45,45,0,0,0-10,28.36v2.47H350.69V209a4.74,4.74,0,0,0-5.53-4.78,4.92,4.92,0,0,0-3.85,4.92v21.48H330.37Z"/><path d="M458.69,124.33a4.86,4.86,0,0,0,3.44,8.3,4.87,4.87,0,1,0-3.44-8.3Z"/><path d="M433,131.21a4.86,4.86,0,1,0-6.88-6.88,4.88,4.88,0,0,0,0,6.88,4.88,4.88,0,0,0,6.88,0Z"/><path d="M436.45,147.58a13.42,13.42,0,0,0,19,0,4.86,4.86,0,0,0-6.88-6.87,3.71,3.71,0,0,1-5.22,0,4.86,4.86,0,0,0-6.88,6.87Z"/><path d="M377.1,40.71a4.87,4.87,0,0,0-4.88-3.85h-3a4.69,4.69,0,0,0-4.62,5.52,4.87,4.87,0,0,0,4.88,3.85h3A4.69,4.69,0,0,0,377.1,40.71Z"/><path d="M353.56,41.33a4.88,4.88,0,0,0-5-4.47h-2.9a4.69,4.69,0,0,0-4.62,5.52,4.87,4.87,0,0,0,4.88,3.85h2.95A4.68,4.68,0,0,0,353.56,41.33Z"/><path d="M358.29,59.64a4.69,4.69,0,0,0,4.9-4.68V51.74A4.7,4.7,0,0,0,357,47.28a4.79,4.79,0,0,0-3.21,4.63v2.74A4.9,4.9,0,0,0,358.29,59.64Z"/><path d="M358.29,36a4.69,4.69,0,0,0,4.9-4.68V28.14A4.7,4.7,0,0,0,357,23.68a4.78,4.78,0,0,0-3.21,4.63v2.74A4.89,4.89,0,0,0,358.29,36Z"/><path d="M550.85,40.71A4.87,4.87,0,0,0,546,36.86h-3a4.69,4.69,0,0,0-4.62,5.52,4.87,4.87,0,0,0,4.88,3.85h3A4.69,4.69,0,0,0,550.85,40.71Z"/><path d="M527.31,41.33a4.89,4.89,0,0,0-5-4.47h-2.91a4.69,4.69,0,0,0-4.61,5.52,4.87,4.87,0,0,0,4.88,3.85h3A4.68,4.68,0,0,0,527.31,41.33Z"/><path d="M533.29,59.64a4.69,4.69,0,0,0,4.9-4.68V51.74A4.7,4.7,0,0,0,532,47.28a4.79,4.79,0,0,0-3.21,4.63v2.74A4.9,4.9,0,0,0,533.29,59.64Z"/><path d="M533.29,36a4.69,4.69,0,0,0,4.9-4.68V28.14A4.7,4.7,0,0,0,532,23.68a4.78,4.78,0,0,0-3.21,4.63v2.74A4.89,4.89,0,0,0,533.29,36Z"/><path d="M445.16,51a4.7,4.7,0,0,0,5.53-4.62V34a4.7,4.7,0,0,0-5.53-4.62,4.87,4.87,0,0,0-3.85,4.88V46.11A4.87,4.87,0,0,0,445.16,51Z"/><path d="M449.25,18.72a4.88,4.88,0,1,0-3.44,1.42A4.89,4.89,0,0,0,449.25,18.72Z"/><path d="M476.86,29.69A4.86,4.86,0,0,0,470,22.81l-7.12,7.12a4.86,4.86,0,0,0,6.88,6.88Z"/><path d="M429,36.78a4.86,4.86,0,0,0,0-6.88l-7.35-7.36a4.86,4.86,0,1,0-6.88,6.88l7.35,7.36a4.88,4.88,0,0,0,6.88,0Z"/><g id="Layer_2-3" data-name="Layer 2"><g id="Layer_1-2-3" data-name="Layer 1-2"><path class="cls-20" d="M60.55,215H86.29l2.76,21H57.8Z"/><path class="cls-21" d="M86.42,220l-.65-5H61.08l-.66,5Z"/><path class="cls-22" d="M2,206.43V119.59A8.59,8.59,0,0,1,10.57,111H135.42a8.58,8.58,0,0,1,8.58,8.58v86.83h0a8.59,8.59,0,0,1-8.59,8.58H10.57A8.59,8.59,0,0,1,2,206.43Z"/><path class="cls-23" d="M2,197v9.48A8.56,8.56,0,0,0,10.57,215H135.41a8.56,8.56,0,0,0,8.59-8.51V197Z"/><path class="cls-24" d="M144,197H2v-5H144Z"/><path class="cls-20" d="M10.57,210A8.47,8.47,0,0,1,2,201.64v5A8.48,8.48,0,0,0,10.57,215H135.41a8.47,8.47,0,0,0,8.59-8.33v-5h0a8.47,8.47,0,0,1-8.59,8.35Z"/><path class="cls-23" d="M130,197H17V142H130Z"/><path class="cls-20" d="M130,197H17v-5H130Z"/><path class="cls-25" d="M21.31,125A4.29,4.29,0,0,0,17,129.29V142H130V129.29a4.3,4.3,0,0,0-4.3-4.29Z"/><path class="cls-19" d="M115,176H32V153h83Z"/><path class="cls-26" d="M115,176H32v-5h83Z"/><path class="cls-27" d="M115,197H78V185h37Z"/><path class="cls-27" d="M69,197H32V185H69Z"/><path class="cls-28" d="M115,197H78v-5h37Z"/><path class="cls-28" d="M69,197H32v-5H69Z"/><path d="M10.94,109C5,109,0,119.71,0,119.71V207a10,10,0,0,0,10,10H24.77a2,2,0,0,0,0-4H10a6,6,0,0,1-6-6v-8H142v7.48a6.49,6.49,0,0,1-6.46,6.52H35.2a2,2,0,0,0,.17,4H58.24L56,234H48.22a2.07,2.07,0,0,0-2.06,2.09A2.11,2.11,0,0,0,48.41,238H98.62a2.07,2.07,0,0,0,2.06-2.09A2.09,2.09,0,0,0,98.44,234H89.55l-2.23-17h48.62A11.06,11.06,0,0,0,147,206V119.72S141.83,109,135.9,109H66.39a.44.44,0,0,0-.19,0,2.15,2.15,0,0,0-2.06,2.24A1.81,1.81,0,0,0,66.39,113h69.52c3.56.27,7.09,6.72,7.09,6.72V195H132V129.41a6.65,6.65,0,0,0-6.87-6.41H21.25A6.33,6.33,0,0,0,15,129.41V195H5V119.72S7.39,113.27,11,113H57.78c.07.27.13.27.19.27A2.15,2.15,0,0,0,60,111a2.11,2.11,0,0,0-2.25-2H11ZM62.23,217H84.62l2.23,17H60ZM128,140H19V129.2a2.18,2.18,0,0,1,2.15-2.2h104.7a2.18,2.18,0,0,1,2.15,2.2Zm0,55H118v-9.8a2.21,2.21,0,0,0-2.21-2.2H78.15A2.15,2.15,0,0,0,76,185.15V195H70v-9.8a2.18,2.18,0,0,0-2.15-2.2H31.15A2.18,2.18,0,0,0,29,185.2V195H19V144H128Zm-94-7H66v7H34Zm47,0h32v7H81Z"/><path class="cls-29" d="M116.24,133a3.31,3.31,0,1,0,3.3-3.3A3.31,3.31,0,0,0,116.24,133Z"/><path class="cls-30" d="M109,129.66a3.31,3.31,0,1,0,3.3,3.3,3.3,3.3,0,0,0-3.3-3.3Z"/><path class="cls-31" d="M95,133h0a3.31,3.31,0,1,0,2-3.06A3.25,3.25,0,0,0,95,133Z"/><path d="M115,178h0a2,2,0,0,0,2-2V153.12a2.14,2.14,0,0,0-2.16-2.12H31.15A2.13,2.13,0,0,0,29,153.12v22.76A2.13,2.13,0,0,0,31.15,178h59.9a2,2,0,1,0,0-4H34V155h79v19H100.29a2,2,0,0,0,.17,4H115Z"/></g></g></g></g></svg>